<?xml version="1.0" encoding="iso-8859-1"?>
<!-- Uploaded to: SVG Repo, www.svgrepo.com, Generator: SVG Repo Mixer Tools -->
<svg height="800px" width="800px" version="1.1" id="Layer_1" xmlns="http://www.w3.org/2000/svg" xmlns:xlink="http://www.w3.org/1999/xlink" 
	 viewBox="0 0 512 512" xml:space="preserve">
<path style="fill:#FFFFFF;" d="M194.207,0C87.121,0,0,87.121,0,194.207s87.121,194.207,194.207,194.207
	s194.207-87.121,194.207-194.207S301.293,0,194.207,0z"/>
<g>
	<path style="fill:#93C7EF;" d="M257.618,81.483c-15.114-38.993-37.908-63.828-63.411-63.828s-48.297,24.835-63.411,63.828
		c20.246-3.271,41.603-4.978,63.411-4.978S237.373,78.212,257.618,81.483z"/>
	<path style="fill:#93C7EF;" d="M130.795,306.93c15.114,38.993,37.909,63.828,63.411,63.828s48.297-24.835,63.411-63.828
		c-20.246,3.271-41.603,4.978-63.411,4.978S151.041,310.201,130.795,306.93z"/>
	<path style="fill:#93C7EF;" d="M194.207,111.816c-26.691,0-51.992,2.77-74.673,7.718c-4.948,22.681-7.718,47.982-7.718,74.673
		s2.77,51.992,7.718,74.673c22.681,4.948,47.982,7.718,74.673,7.718s51.992-2.77,74.673-7.718
		c4.948-22.681,7.718-47.982,7.718-74.673s-2.77-51.992-7.718-74.673C246.199,114.586,220.898,111.816,194.207,111.816z"/>
</g>
<g>
	<path style="fill:#78B9EB;" d="M194.207,76.506c21.809,0,43.166,1.707,63.411,4.978c-15.114-38.993-37.908-63.828-63.411-63.828"/>
	<path style="fill:#78B9EB;" d="M194.207,370.759c25.502,0,48.297-24.835,63.411-63.828c-20.246,3.271-41.603,4.978-63.411,4.978"/>
	<path style="fill:#78B9EB;" d="M194.207,276.598c26.691,0,51.992-2.77,74.673-7.718c4.948-22.681,7.718-47.982,7.718-74.673
		s-2.77-51.992-7.718-74.673c-22.681-4.948-47.982-7.718-74.673-7.718"/>
</g>
<path style="fill:#93C7EF;" d="M17.655,194.207c0,25.503,24.834,48.297,63.828,63.411c-3.271-20.246-4.978-41.603-4.978-63.411
	s1.707-43.166,4.978-63.411C42.489,145.909,17.655,168.703,17.655,194.207z"/>
<g>
	<path style="fill:#78B9EB;" d="M306.93,130.795c3.271,20.246,4.978,41.603,4.978,63.411s-1.707,43.166-4.978,63.411
		c38.994-15.114,63.828-37.908,63.828-63.411S345.925,145.909,306.93,130.795z"/>
	<path style="fill:#78B9EB;" d="M333.979,284.464c-11.096,5.178-23.201,9.67-36.074,13.441c-3.772,12.874-8.264,24.98-13.441,36.075
		c-8.506,18.227-18.625,33.293-30.123,44.892c58.798-19.194,105.338-65.734,124.531-124.531
		C367.272,265.839,352.208,275.957,333.979,284.464z"/>
</g>
<path style="fill:#93C7EF;" d="M103.95,333.981c-5.178-11.097-9.67-23.202-13.441-36.075c-12.873-3.771-24.979-8.264-36.074-13.441
	c-18.227-8.506-33.293-18.624-44.892-30.122c19.194,58.798,65.734,105.338,124.531,124.531
	C122.575,367.273,112.456,352.208,103.95,333.981z"/>
<path style="fill:#78B9EB;" d="M284.464,54.433c5.178,11.097,9.67,23.202,13.441,36.075c12.873,3.771,24.979,8.264,36.074,13.441
	c18.227,8.506,33.293,18.624,44.892,30.122C359.678,75.275,313.138,28.734,254.34,9.541
	C265.839,21.14,275.957,36.206,284.464,54.433z"/>
<path style="fill:#93C7EF;" d="M54.434,103.95c11.096-5.178,23.201-9.67,36.074-13.441c3.772-12.874,8.264-24.98,13.441-36.075
	c8.506-18.227,18.625-33.293,30.123-44.892C75.276,28.734,28.736,75.275,9.542,134.072C21.141,122.575,36.206,112.456,54.434,103.95
	z"/>
<path style="fill:#006DF0;" d="M499.115,436.695L357.629,295.21c-8.31-8.311-19.394-12.886-31.211-12.886
	c-11.818,0-22.902,4.576-31.211,12.885c-8.31,8.31-12.885,19.394-12.885,31.211s4.576,22.901,12.885,31.211l141.487,141.486
	c8.31,8.309,19.394,12.884,31.211,12.884c11.817,0,22.901-4.576,31.21-12.885c8.31-8.31,12.885-19.394,12.885-31.211
	S507.424,445.003,499.115,436.695z"/>
<circle style="fill:#FFFFFF;" cx="326.468" cy="326.468" r="129.471"/>
<g>
	<path style="fill:#78B9EB;" d="M326.462,473.519c-37.676,0-75.352-14.341-104.034-43.022l0,0
		c-27.788-27.789-43.093-64.736-43.093-104.036c0-39.299,15.304-76.244,43.093-104.034c27.788-27.788,64.736-43.093,104.034-43.093
		s76.246,15.305,104.034,43.093c27.788,27.788,43.093,64.734,43.093,104.034c0,39.3-15.303,76.246-43.093,104.036
		C401.813,459.177,364.138,473.519,326.462,473.519z M247.395,405.528c43.598,43.595,114.535,43.595,158.133,0
		c21.119-21.119,32.75-49.199,32.75-79.067c0-29.867-11.631-57.945-32.75-79.066c-21.119-21.119-49.199-32.75-79.066-32.75
		s-57.947,11.631-79.066,32.75s-32.75,49.199-32.75,79.066C214.646,356.328,226.277,384.408,247.395,405.528L247.395,405.528z"/>
	<path style="fill:#78B9EB;" d="M430.495,222.428c-27.788-27.788-64.736-43.093-104.034-43.093v35.31
		c29.867,0,57.947,11.631,79.066,32.75s32.75,49.199,32.75,79.066c0,29.868-11.631,57.947-32.75,79.067
		c-21.799,21.798-50.433,32.696-79.066,32.696v35.294c37.676,0,75.352-14.342,104.034-43.022
		c27.788-27.789,43.093-64.736,43.093-104.036C473.588,287.163,458.284,250.216,430.495,222.428z"/>
</g>
<path style="fill:#003778;" d="M388.414,323.518c0-5.468-0.687-10.776-1.97-15.852l17.415-10.054l-17.655-30.579l-17.456,10.079
	c-7.587-7.369-16.965-12.894-27.414-15.861v-20.123h-35.31v20.123c-10.448,2.967-19.827,8.491-27.414,15.861l-17.456-10.079
	l-17.655,30.579l17.414,10.054c-1.282,5.075-1.97,10.384-1.97,15.852s0.687,10.776,1.97,15.852l-17.414,10.054l17.655,30.579
	l17.456-10.079c7.587,7.37,16.965,12.894,27.414,15.861v20.123h35.31v-20.123c10.448-2.967,19.827-8.491,27.414-15.861
	l17.456,10.079l17.655-30.579l-17.415-10.054C387.726,334.295,388.414,328.986,388.414,323.518z M323.678,352.943
	c-16.225,0-29.425-13.2-29.425-29.425c0-16.225,13.2-29.425,29.425-29.425c16.225,0,29.425,13.2,29.425,29.425
	C353.103,339.743,339.904,352.943,323.678,352.943z"/>
</svg>